PathFileType	4	(X/Y/Z)	C:/Users/opensim2020/Desktop/walking_exp_matlab/subject03_walking04_straight_02.trc																																																																																																																																																							
DataRate	CameraRate	NumFrames	NumMarkers	Units	OrigDataRate	OrigDataStartFrame	OrigNumFrames																																																																																																																																																			
100	100	5	51	mm	100	1701	259																																																																																																																																																			
Frame#	Time	LFHD			RFHD			LBHD			RBHD			C7			T10			CLAV			STRN			RBAK			LSHO			LUPA			LELB			LFRM			LWRA			LWRB			LFIN			RSHO			RUPA			RELB			RFRM			RWRA			RWRB			RFIN			LASI			RASI			LPSI			RPSI			LTHI			LKNE			LTIB			LANK			LHEE			LTOE			RTHI			RKNE			RTIB			RANK			RHEE			RTOE			*39			*40			*41			*42			*43			*44			*45			*46			*47			*48			*49			*50		
		X1	Y1	Z1	X2	Y2	Z2	X3	Y3	Z3	X4	Y4	Z4	X5	Y5	Z5	X6	Y6	Z6	X7	Y7	Z7	X8	Y8	Z8	X9	Y9	Z9	X10	Y10	Z10	X11	Y11	Z11	X12	Y12	Z12	X13	Y13	Z13	X14	Y14	Z14	X15	Y15	Z15	X16	Y16	Z16	X17	Y17	Z17	X18	Y18	Z18	X19	Y19	Z19	X20	Y20	Z20	X21	Y21	Z21	X22	Y22	Z22	X23	Y23	Z23	X24	Y24	Z24	X25	Y25	Z25	X26	Y26	Z26	X27	Y27	Z27	X28	Y28	Z28	X29	Y29	Z29	X30	Y30	Z30	X31	Y31	Z31	X32	Y32	Z32	X33	Y33	Z33	X34	Y34	Z34	X35	Y35	Z35	X36	Y36	Z36	X37	Y37	Z37	X38	Y38	Z38	X39	Y39	Z39	X40	Y40	Z40	X41	Y41	Z41	X42	Y42	Z42	X43	Y43	Z43	X44	Y44	Z44	X45	Y45	Z45	X46	Y46	Z46	X47	Y47	Z47	X48	Y48	Z48	X49	Y49	Z49	X50	Y50	Z50	X51	Y51	Z51
																																																																																																																																																										
162	1.61	155.45374	1615.35059	-1627.05481	130.08881	1617.78748	-1495.53345	24.80117	1583.80615	-1646.5072	4.88746	1586.15601	-1516.68713	-26.52323	1420.47681	-1581.60229	-64.21201	1105.28625	-1579.74011	91.89484	1340.82178	-1578.77429	133.79823	1175.74084	-1581.96704	-82.02419	1245.45874	-1480.00842	46.83408	1376.30981	-1735.86902	26.63638	1176.97888	-1803.53735	25.36545	1053.10693	-1812.06812	46.28451	924.47968	-1808.38086	58.63435	807.96924	-1775.85803	37.09556	811.53827	-1826.86768	47.66494	728.2713	-1814.91309	48.97197	1368.04761	-1420.45215	84.86747	1151.32288	-1342.495	124.84521	1046.073	-1329.19873	174.17188	918.55969	-1328.78113	222.81454	833.37695	-1368.1084	198.67644	821.35651	-1320.927	237.83357	758.64801	-1333.4303	109.22234	942.70996	-1691.28857	97.71249	941.0224	-1453.50806	-55.31524	959.22705	-1650.90649	-59.67242	973.56519	-1501.46216	142.15378	652.43945	-1746.30823	207.43123	486.61078	-1713.50952	139.85176	299.23883	-1713.92505	92.60661	95.75846	-1676.18152	48.35632	63.24175	-1635.9375	231.39136	45.31198	-1656.47913	14.21816	648.61584	-1423.97803	2.24975	470.25638	-1465.36438	-69.87839	291.84341	-1468.46936	-124.29153	83.40078	-1525.0752	-168.68793	56.95135	-1578.12439	15.21534	36.19706	-1535.23157	NaN	NaN	NaN	NaN	NaN	NaN	NaN	NaN	NaN	NaN	NaN	NaN	NaN	NaN	NaN	NaN	NaN	NaN	NaN	NaN	NaN	NaN	NaN	NaN	NaN	NaN	NaN	NaN	NaN	NaN	NaN	NaN	NaN	NaN	NaN	NaN
163	1.62	165.75334	1614.39734	-1627.24194	140.49431	1616.97766	-1496.07422	35.1137	1582.93677	-1647.2168	15.30861	1585.39575	-1517.33936	-16.2429	1419.85254	-1582.00635	-54.63147	1104.75562	-1580.4668	102.04216	1339.86975	-1579.14209	143.49019	1174.68726	-1582.10181	-72.19927	1245.16638	-1480.3844	56.91853	1375.47412	-1736.37903	34.21392	1176.27686	-1804.16931	31.26884	1052.4032	-1812.6842	50.66776	923.58038	-1808.98096	61.2324	806.59296	-1775.86877	40.13991	810.67194	-1827.24622	49.9308	727.34515	-1815.14783	59.19188	1367.43982	-1420.91956	96.11371	1151.20081	-1342.62024	137.2144	1046.39465	-1329.28821	188.20016	919.55786	-1328.89209	237.86945	835.12372	-1368.4115	214.06937	822.71985	-1321.2915	254.05894	760.68347	-1333.48218	119.11082	941.74847	-1691.34082	106.53086	940.13452	-1453.42419	-45.50448	958.61975	-1651.66589	-50.64117	973.04913	-1502.29578	151.05949	651.28558	-1746.14771	216.96576	485.90372	-1712.48816	158.68021	295.935	-1712.8092	123.06512	89.85969	-1675.17651	81.2906	55.31519	-1634.74011	264.97159	46.12779	-1655.58521	20.48378	648.39886	-1424.12366	6.92619	470.10745	-1465.22827	-67.29162	292.40399	-1468.47253	-123.73051	84.50587	-1525.19873	-168.09822	58.17589	-1578.25378	15.30737	36.14879	-1535.11743	NaN	NaN	NaN	NaN	NaN	NaN	NaN	NaN	NaN	NaN	NaN	NaN	NaN	NaN	NaN	NaN	NaN	NaN	NaN	NaN	NaN	NaN	NaN	NaN	NaN	NaN	NaN	NaN	NaN	NaN	NaN	NaN	NaN	NaN	NaN	NaN
164	1.63	176.3974	1613.43628	-1627.93103	150.88548	1616.14795	-1496.65271	45.67539	1582.03833	-1647.86487	25.72212	1584.55713	-1517.96082	-5.62762	1418.89868	-1582.26563	-45.00556	1104.20361	-1581.28198	112.31376	1338.92151	-1579.58374	153.19823	1173.62781	-1582.19434	-62.29888	1244.78516	-1480.8175	67.14092	1374.57996	-1736.8678	41.8531	1175.64636	-1804.77576	37.22398	1051.71228	-1813.26135	55.2584	922.71863	-1809.54822	65.05351	806.09235	-1776.73645	43.43448	809.88037	-1827.63745	52.26932	726.42688	-1815.25391	69.45569	1366.71948	-1421.38721	107.21426	1150.93994	-1342.79529	149.39572	1046.64148	-1329.40881	201.99643	920.45087	-1329.17029	252.74788	836.81824	-1368.79211	229.1301	824.01263	-1321.77332	270.13086	762.7774	-1333.87061	129.01588	940.56702	-1691.49097	115.39692	939.22528	-1453.55725	-35.71638	957.9082	-1652.5708	-41.58615	972.52399	-1503.11548	159.26459	649.57019	-1745.98132	225.93221	484.7952	-1711.37207	176.86101	292.74533	-1711.82642	155.29536	84.78293	-1673.65881	114.25716	48.42605	-1633.44739	298.17499	47.21791	-1654.75183	27.05677	648.1076	-1424.59265	11.77121	469.92743	-1465.15662	-64.63326	293.0112	-1468.43823	-123.50748	85.42126	-1525.30396	-168.07701	59.86295	-1578.26331	15.40189	36.07038	-1534.99451	NaN	NaN	NaN	NaN	NaN	NaN	NaN	NaN	NaN	NaN	NaN	NaN	NaN	NaN	NaN	NaN	NaN	NaN	NaN	NaN	NaN	NaN	NaN	NaN	NaN	NaN	NaN	NaN	NaN	NaN	NaN	NaN	NaN	NaN	NaN	NaN
165	1.64	186.97444	1612.38428	-1628.32288	161.33578	1615.23816	-1497.18567	56.29897	1581.14185	-1648.52222	36.09983	1583.81982	-1518.67993	4.32401	1418.48047	-1583.05322	-35.29551	1103.56628	-1582.2876	122.56274	1337.90588	-1580.00928	163.08713	1172.47473	-1582.3313	-52.37988	1244.349	-1481.4198	77.53906	1373.65552	-1737.42554	49.57106	1174.93958	-1805.4187	43.44113	1051.03772	-1813.91956	60.08093	921.87018	-1810.11353	68.20188	804.70789	-1776.65747	46.91219	809.1618	-1827.99573	55.10636	725.70288	-1815.69934	79.71037	1365.93896	-1421.9303	118.2429	1150.63074	-1343.02734	161.31691	1046.7627	-1329.59058	215.58794	921.28705	-1329.56653	267.65164	838.48492	-1369.1908	243.88431	825.15936	-1322.45142	286.05487	764.776	-1334.43994	139.10428	939.33344	-1691.77002	124.35381	938.11646	-1453.69897	-25.77591	957.08636	-1653.51013	-32.31955	971.83722	-1504.12158	166.79498	647.44897	-1745.75806	234.31026	483.29977	-1710.20117	194.79169	289.83017	-1710.7666	185.51454	80.44483	-1672.84375	146.71103	42.93098	-1632.14563	330.54877	48.67231	-1653.96533	33.81392	647.97614	-1424.96887	16.79306	469.78619	-1465.01306	-61.70745	293.63406	-1468.61633	-122.86809	86.58315	-1525.14624	-167.61833	61.53697	-1578.34424	15.51847	35.99453	-1534.89331	NaN	NaN	NaN	NaN	NaN	NaN	NaN	NaN	NaN	NaN	NaN	NaN	NaN	NaN	NaN	NaN	NaN	NaN	NaN	NaN	NaN	NaN	NaN	NaN	NaN	NaN	NaN	NaN	NaN	NaN	NaN	NaN	NaN	NaN	NaN	NaN
166	1.65	197.5446	1611.24707	-1628.84985	171.87801	1614.26062	-1497.8114	66.9555	1580.19287	-1649.22644	46.66376	1582.97083	-1519.36963	14.74516	1417.6084	-1583.62866	-25.40747	1102.79382	-1583.15601	132.82985	1336.83789	-1580.48291	173.08656	1171.42786	-1582.61633	-42.39655	1243.80566	-1482.07056	87.95068	1372.66748	-1738.01587	57.49133	1174.2738	-1806.08032	49.8014	1050.35254	-1814.57214	65.13831	921.05865	-1810.68738	72.14635	803.82111	-1777.09985	50.62945	808.46021	-1828.4093	57.96469	724.86102	-1815.93469	89.98316	1365.16675	-1422.5448	129.11703	1150.21326	-1343.31067	173.00768	1046.77466	-1329.80518	228.77177	921.99463	-1329.96069	282.06995	840.0979	-1369.84229	258.36578	826.22382	-1323.16455	301.48575	766.64642	-1335.15784	149.13792	937.95642	-1692.10852	133.50502	937.17413	-1453.96838	-15.88533	956.24426	-1654.4978	-22.90821	971.10388	-1505.09985	173.82327	644.93561	-1745.62964	242.26549	481.49823	-1708.94153	212.05743	287.2565	-1709.62415	215.25864	77.49372	-1672.21497	178.32005	38.82137	-1630.9989	361.87369	50.75775	-1653.18286	40.5222	647.75421	-1424.97607	21.99163	469.68594	-1464.87927	-58.63296	294.30658	-1468.53418	-122.22648	88.03325	-1525.22375	-167.16281	63.45512	-1578.39734	15.68417	35.80291	-1534.78052	NaN	NaN	NaN	NaN	NaN	NaN	NaN	NaN	NaN	NaN	NaN	NaN	NaN	NaN	NaN	NaN	NaN	NaN	NaN	NaN	NaN	NaN	NaN	NaN	NaN	NaN	NaN	NaN	NaN	NaN	NaN	NaN	NaN	NaN	NaN	NaN
